# Blender v2.77 (sub 0) OBJ File: 'model.obj'
# www.blender.org
mtllib model.mtl
o group_2_ID34
v -5.390325 0.179859 -0.460007
v -5.047863 0.522320 -0.460007
v 5.568445 0.179859 -0.460007
v -5.390325 8.284781 -0.460006
v -5.047863 7.942317 -0.460006
v 5.225980 7.942317 -0.460006
v 5.225980 0.522320 -0.460007
v 5.568445 8.284781 -0.460006
v -5.390325 8.284781 -0.460006
v 5.225980 7.942317 -0.460006
v 5.568445 8.284781 -0.460006
v 5.225980 0.522320 -0.460007
v -5.047863 0.522320 -0.460007
v 5.568445 0.179859 -0.460007
v -5.047863 7.942317 -0.460006
v -5.390325 0.179859 -0.460007
v -5.390325 8.284781 -0.460006
v -5.390325 0.179858 0.110763
v -5.390325 8.284781 0.110764
v -5.390325 0.179859 -0.460007
v -5.390325 0.179859 -0.460007
v -5.390325 8.284781 -0.460006
v -5.390325 0.179858 0.110763
v -5.390325 8.284781 0.110764
v 5.568445 8.284781 0.110764
v -5.390325 8.284781 -0.460006
v -5.390325 8.284781 0.110764
v 5.568445 8.284781 -0.460006
v 5.568445 8.284781 -0.460006
v 5.568445 8.284781 0.110764
v -5.390325 8.284781 -0.460006
v -5.390325 8.284781 0.110764
v 5.568445 0.179859 -0.460007
v 5.568445 8.284781 0.110764
v 5.568445 0.179858 0.110763
v 5.568445 8.284781 -0.460006
v 5.568445 8.284781 -0.460006
v 5.568445 0.179859 -0.460007
v 5.568445 8.284781 0.110764
v 5.568445 0.179858 0.110763
v 5.568445 0.179859 -0.460007
v -5.390325 0.179858 0.110763
v -5.390325 0.179859 -0.460007
v 5.568445 0.179858 0.110763
v 5.568445 0.179858 0.110763
v 5.568445 0.179859 -0.460007
v -5.390325 0.179858 0.110763
v -5.390325 0.179859 -0.460007
v 5.568445 0.179858 0.110763
v 5.225980 0.522320 0.110763
v -5.390325 0.179858 0.110763
v 5.568445 8.284781 0.110764
v 5.225980 7.942317 0.110764
v -5.047863 7.942317 0.110764
v -5.047863 0.522320 0.110763
v -5.390325 8.284781 0.110764
v 5.568445 8.284781 0.110764
v -5.047863 7.942317 0.110764
v -5.390325 8.284781 0.110764
v -5.047863 0.522320 0.110763
v 5.225980 0.522320 0.110763
v -5.390325 0.179858 0.110763
v 5.225980 7.942317 0.110764
v 5.568445 0.179858 0.110763
vt 0.000000 0.000000
vt 1.000000 0.000000
vt 1.000000 1.000000
vt 0.000000 0.000000
vt 1.000000 0.000000
vt 1.000000 1.000000
vt 1.000000 0.000000
vt 1.000000 1.000000
vt 0.000000 0.000000
vt 1.000000 1.000000
vt 0.000000 0.000000
vt 1.000000 0.000000
vt 1.000000 1.000000
vt 0.000000 0.000000
vt 1.000000 0.000000
vt 1.000000 1.000000
vt 0.000000 0.000000
vt 1.000000 0.000000
vt 0.000000 0.000000
vt 1.000000 0.000000
vt 1.000000 1.000000
vt 0.000000 0.000000
vt 1.000000 0.000000
vt 0.000000 0.000000
vt 1.000000 0.000000
vt 1.000000 1.000000
vt 0.000000 0.000000
vt 1.000000 1.000000
vt 1.000000 0.000000
vt 1.000000 1.000000
vt 0.000000 0.000000
vt 1.000000 1.000000
vt 1.000000 0.000000
vt 0.000000 0.000000
vt 1.000000 0.000000
vt 1.000000 1.000000
vt 0.000000 0.000000
vt 1.000000 0.000000
vt 1.000000 1.000000
vt 0.000000 0.000000
vt 1.000000 0.000000
vt 1.000000 1.000000
vt 0.000000 0.000000
vt 1.000000 0.000000
vt 1.000000 1.000000
vt 0.000000 0.000000
vt 1.000000 0.000000
vt 1.000000 1.000000
vt 0.000000 0.000000
vt 1.000000 0.000000
vt 1.000000 1.000000
vt 0.000000 0.000000
vt 1.000000 0.000000
vt 1.000000 1.000000
vt 0.000000 0.000000
vt 1.000000 0.000000
vt 1.000000 1.000000
vt 0.000000 0.000000
vt 1.000000 0.000000
vt 1.000000 1.000000
vt 0.000000 0.000000
vt 1.000000 0.000000
vt 1.000000 1.000000
vt 0.000000 0.000000
vt 1.000000 0.000000
vt 1.000000 1.000000
vt 0.000000 0.000000
vt 1.000000 0.000000
vt 1.000000 1.000000
vt 0.000000 0.000000
vt 1.000000 0.000000
vt 1.000000 1.000000
vt 0.000000 0.000000
vt 1.000000 0.000000
vt 1.000000 1.000000
vt 0.000000 0.000000
vt 1.000000 0.000000
vt 1.000000 1.000000
vt 0.000000 0.000000
vt 1.000000 0.000000
vt 1.000000 1.000000
vt 0.000000 0.000000
vt 1.000000 0.000000
vt 1.000000 1.000000
vt 0.000000 0.000000
vt 1.000000 0.000000
vt 1.000000 1.000000
vt 0.000000 0.000000
vt 1.000000 0.000000
vt 1.000000 1.000000
vt 1.000000 0.000000
vt 1.000000 1.000000
vt 0.000000 0.000000
vt 1.000000 1.000000
vt 0.000000 0.000000
vt 1.000000 0.000000
vt 1.000000 1.000000
vt 0.000000 0.000000
vt 1.000000 0.000000
vt 1.000000 1.000000
vt 0.000000 0.000000
vt 1.000000 0.000000
vt 0.000000 0.000000
vt 1.000000 0.000000
vt 1.000000 1.000000
vt 0.000000 0.000000
vt 1.000000 0.000000
vt 0.000000 0.000000
vt 1.000000 0.000000
vt 1.000000 1.000000
vt 0.000000 0.000000
vt 1.000000 1.000000
vt 1.000000 0.000000
vt 1.000000 1.000000
vt 0.000000 0.000000
vt 1.000000 1.000000
vt 1.000000 0.000000
vt 0.000000 0.000000
vt 1.000000 0.000000
vt 1.000000 1.000000
vn 0.000000 0.000000 -1.000000
vn -0.000000 -0.000000 1.000000
vn -1.000000 0.000000 0.000000
vn 1.000000 0.000000 0.000000
vn 0.000000 1.000000 0.000000
vn 0.000000 -1.000000 0.000000
usemtl Plastic_Black
s 1
f 1/1/1 2/2/1 3/3/1
f 2/4/1 1/5/1 4/6/1
f 2/4/1 4/7/1 5/8/1
f 5/9/1 4/7/1 6/10/1
f 3/11/1 7/12/1 8/13/1
f 7/14/1 3/15/1 2/16/1
f 8/17/1 7/12/1 6/10/1
f 8/17/1 6/18/1 4/6/1
f 9/19/2 10/20/2 11/21/2
f 10/22/2 12/23/2 11/21/2
f 13/24/2 14/25/2 12/26/2
f 11/27/2 12/23/2 14/28/2
f 10/22/2 9/29/2 15/30/2
f 15/31/2 9/29/2 13/32/2
f 9/19/2 16/33/2 13/32/2
f 14/34/2 13/35/2 16/36/2
f 17/37/3 18/38/3 19/39/3
f 18/40/3 17/41/3 20/42/3
f 21/43/4 22/44/4 23/45/4
f 24/46/4 23/47/4 22/48/4
f 25/49/5 26/50/5 27/51/5
f 26/52/5 25/53/5 28/54/5
f 29/55/6 30/56/6 31/57/6
f 32/58/6 31/59/6 30/60/6
f 33/61/4 34/62/4 35/63/4
f 34/64/4 33/65/4 36/66/4
f 37/67/3 38/68/3 39/69/3
f 40/70/3 39/71/3 38/72/3
f 41/73/6 42/74/6 43/75/6
f 42/76/6 41/77/6 44/78/6
f 45/79/5 46/80/5 47/81/5
f 48/82/5 47/83/5 46/84/5
f 49/85/2 50/86/2 51/87/2
f 50/88/2 49/89/2 52/90/2
f 50/88/2 52/91/2 53/92/2
f 53/93/2 52/91/2 54/94/2
f 51/95/2 55/96/2 56/97/2
f 55/98/2 51/99/2 50/100/2
f 56/101/2 55/96/2 54/94/2
f 56/101/2 54/102/2 52/90/2
f 57/103/1 58/104/1 59/105/1
f 58/106/1 60/107/1 59/105/1
f 61/108/1 62/109/1 60/110/1
f 59/111/1 60/107/1 62/112/1
f 58/106/1 57/113/1 63/114/1
f 63/115/1 57/113/1 61/116/1
f 57/103/1 64/117/1 61/116/1
f 62/118/1 61/119/1 64/120/1
o group_2.002_ID46
v -5.047863 7.942317 -0.231698
v 5.225980 7.942317 -0.231698
v -5.047863 0.522320 -0.231699
v 5.225980 0.522320 -0.231699
v 5.225980 7.942317 -0.231698
v -5.047863 0.522320 -0.231699
v 5.225980 0.522320 -0.231699
v -5.047863 7.942317 -0.231698
vt 0.000000 0.000000
vt 0.000000 0.000000
vt 0.000000 0.000000
vt 0.000000 0.000000
vt 4.994592 1.921761
vt 3.994189 1.018620
vt 4.994592 1.018620
vt 3.994189 1.921761
vn 0.000000 0.000000 -1.000000
vn 0.000000 -0.000000 1.000000
usemtl Plastic_Black_material_11.jpg
s 1
f 65/121/7 66/122/7 67/123/7
f 68/124/7 67/123/7 66/122/7
usemtl material_3
f 69/125/8 70/126/8 71/127/8
f 70/126/8 69/125/8 72/128/8
o group_2.001_ID40
v 5.225980 7.942317 -0.231698
v -5.047863 7.942317 -0.460006
v -5.047863 7.942317 -0.231698
v 5.225980 7.942317 -0.460006
v 5.225980 7.942317 -0.460006
v 5.225980 7.942317 -0.231698
v -5.047863 7.942317 -0.460006
v -5.047863 7.942317 -0.231698
v -5.047863 7.942317 -0.460006
v -5.047863 0.522320 -0.231699
v -5.047863 7.942317 -0.231698
v -5.047863 0.522320 -0.460007
v -5.047863 0.522320 -0.460007
v -5.047863 7.942317 -0.460006
v -5.047863 0.522320 -0.231699
v -5.047863 7.942317 -0.231698
v 5.225980 7.942317 0.110764
v -5.047863 7.942317 0.110764
v 5.225980 7.942317 0.110764
v -5.047863 7.942317 0.110764
v 5.225980 0.522320 -0.460007
v 5.225980 7.942317 -0.231698
v 5.225980 0.522320 -0.231699
v 5.225980 7.942317 -0.460006
v 5.225980 7.942317 -0.460006
v 5.225980 0.522320 -0.460007
v 5.225980 7.942317 -0.231698
v 5.225980 0.522320 -0.231699
v 5.225980 0.522320 -0.460007
v -5.047863 0.522320 -0.231699
v -5.047863 0.522320 -0.460007
v 5.225980 0.522320 -0.231699
v 5.225980 0.522320 -0.231699
v 5.225980 0.522320 -0.460007
v -5.047863 0.522320 -0.231699
v -5.047863 0.522320 -0.460007
v -5.047863 0.522320 0.110763
v -5.047863 7.942317 0.110764
v -5.047863 0.522320 0.110763
v -5.047863 7.942317 0.110764
v 5.225980 7.942317 0.110764
v 5.225980 0.522320 0.110763
v 5.225980 7.942317 0.110764
v 5.225980 0.522320 0.110763
v -5.047863 0.522320 0.110763
v 5.225980 0.522320 0.110763
v 5.225980 0.522320 0.110763
v -5.047863 0.522320 0.110763
vt 0.000000 0.000000
vt 1.000000 0.000000
vt 1.000000 1.000000
vt 0.000000 0.000000
vt 1.000000 0.000000
vt 1.000000 1.000000
vt 0.000000 0.000000
vt 1.000000 0.000000
vt 1.000000 1.000000
vt 0.000000 0.000000
vt 1.000000 0.000000
vt 1.000000 1.000000
vt 0.000000 0.000000
vt 1.000000 0.000000
vt 1.000000 1.000000
vt 0.000000 0.000000
vt 1.000000 0.000000
vt 1.000000 1.000000
vt 0.000000 0.000000
vt 1.000000 0.000000
vt 1.000000 1.000000
vt 0.000000 0.000000
vt 1.000000 0.000000
vt 1.000000 1.000000
vt 0.000000 0.000000
vt 1.000000 0.000000
vt 1.000000 1.000000
vt 0.000000 0.000000
vt 1.000000 0.000000
vt 1.000000 1.000000
vt 0.000000 0.000000
vt 1.000000 0.000000
vt 1.000000 1.000000
vt 0.000000 0.000000
vt 1.000000 0.000000
vt 1.000000 1.000000
vt 0.000000 0.000000
vt 1.000000 0.000000
vt 1.000000 1.000000
vt 0.000000 0.000000
vt 1.000000 0.000000
vt 1.000000 1.000000
vt 0.000000 0.000000
vt 1.000000 0.000000
vt 1.000000 1.000000
vt 0.000000 0.000000
vt 1.000000 0.000000
vt 1.000000 1.000000
vt 0.000000 0.000000
vt 1.000000 0.000000
vt 1.000000 1.000000
vt 0.000000 0.000000
vt 1.000000 0.000000
vt 1.000000 1.000000
vt 0.000000 0.000000
vt 1.000000 0.000000
vt 1.000000 1.000000
vt 0.000000 0.000000
vt 1.000000 0.000000
vt 1.000000 1.000000
vt 0.000000 0.000000
vt 1.000000 0.000000
vt 1.000000 1.000000
vt 0.000000 0.000000
vt 1.000000 0.000000
vt 1.000000 1.000000
vt 0.000000 0.000000
vt 1.000000 0.000000
vt 1.000000 1.000000
vt 0.000000 0.000000
vt 1.000000 0.000000
vt 1.000000 1.000000
vt 0.000000 0.000000
vt 1.000000 0.000000
vt 1.000000 1.000000
vt 0.000000 0.000000
vt 1.000000 0.000000
vt 1.000000 1.000000
vt 0.000000 0.000000
vt 1.000000 0.000000
vt 1.000000 1.000000
vt 0.000000 0.000000
vt 1.000000 0.000000
vt 1.000000 1.000000
vt 0.000000 0.000000
vt 1.000000 0.000000
vt 1.000000 1.000000
vt 0.000000 0.000000
vt 1.000000 0.000000
vt 1.000000 1.000000
vt 0.000000 0.000000
vt 1.000000 0.000000
vt 1.000000 1.000000
vt 0.000000 0.000000
vt 1.000000 0.000000
vt 1.000000 1.000000
vn 0.000000 1.000000 0.000000
vn 0.000000 -1.000000 0.000000
vn -1.000000 0.000000 0.000000
vn 1.000000 0.000000 0.000000
usemtl Plastic_Black
s 1
f 73/129/9 74/130/9 75/131/9
f 74/132/9 73/133/9 76/134/9
f 77/135/10 78/136/10 79/137/10
f 80/138/10 79/139/10 78/140/10
f 81/141/11 82/142/11 83/143/11
f 82/144/11 81/145/11 84/146/11
f 85/147/12 86/148/12 87/149/12
f 88/150/12 87/151/12 86/152/12
f 89/153/9 75/154/9 90/155/9
f 75/156/9 89/157/9 73/158/9
f 78/159/10 91/160/10 80/161/10
f 92/162/10 80/163/10 91/164/10
f 93/165/12 94/166/12 95/167/12
f 94/168/12 93/169/12 96/170/12
f 97/171/11 98/172/11 99/173/11
f 100/174/11 99/175/11 98/176/11
f 101/177/10 102/178/10 103/179/10
f 102/180/10 101/181/10 104/182/10
f 105/183/9 106/184/9 107/185/9
f 108/186/9 107/187/9 106/188/9
f 83/189/11 109/190/11 110/191/11
f 109/192/11 83/193/11 82/194/11
f 87/195/12 88/196/12 111/197/12
f 112/198/12 111/199/12 88/200/12
f 95/201/12 113/202/12 114/203/12
f 113/204/12 95/205/12 94/206/12
f 99/207/11 100/208/11 115/209/11
f 116/210/11 115/211/11 100/212/11
f 104/213/10 117/214/10 102/215/10
f 117/216/10 104/217/10 118/218/10
f 119/219/9 105/220/9 120/221/9
f 107/222/9 120/223/9 105/224/9
